<mxfile host="app.diagrams.net" modified="2023-04-17T09:10:34.907Z" agent="Mozilla/5.0 (Macintosh; Intel Mac OS X 10_15_7) AppleWebKit/537.36 (KHTML, like Gecko) Chrome/112.0.0.0 Safari/537.36" etag="6k_Bs4ebzlF4B0VVg-8E" version="21.1.8" type="github">
  <diagram name="第 1 页" id="AfgDCsWPRT2zeVTn2r_f">
    <mxGraphModel dx="1834" dy="336" grid="0" gridSize="10" guides="1" tooltips="1" connect="1" arrows="1" fold="1" page="0" pageScale="1" pageWidth="1200" pageHeight="600" math="0" shadow="0">
      <root>
        <mxCell id="0" />
        <mxCell id="1" parent="0" />
        <mxCell id="lmjF-axeNM3irQxMTkxf-1" value="" style="shape=note;whiteSpace=wrap;html=1;backgroundOutline=1;darkOpacity=0.05;fontSize=16;" vertex="1" parent="1">
          <mxGeometry x="-27" y="591" width="153" height="212" as="geometry" />
        </mxCell>
        <mxCell id="lmjF-axeNM3irQxMTkxf-2" value="" style="rounded=0;whiteSpace=wrap;html=1;fontSize=16;dashed=1;fillColor=none;" vertex="1" parent="1">
          <mxGeometry x="-45.5" y="603" width="190" height="59" as="geometry" />
        </mxCell>
        <mxCell id="lmjF-axeNM3irQxMTkxf-3" value="" style="rounded=0;whiteSpace=wrap;html=1;fontSize=16;dashed=1;fillColor=none;" vertex="1" parent="1">
          <mxGeometry x="-48" y="672" width="190" height="144" as="geometry" />
        </mxCell>
        <mxCell id="lmjF-axeNM3irQxMTkxf-4" value="软件及硬件信息" style="whiteSpace=wrap;html=1;shape=partialRectangle;top=0;left=0;bottom=1;right=0;points=[[0,1],[1,1]];fillColor=none;align=center;verticalAlign=bottom;routingCenterY=0.5;snapToPoint=1;recursiveResize=0;autosize=1;treeFolding=1;treeMoving=1;newEdgeStyle={&quot;edgeStyle&quot;:&quot;entityRelationEdgeStyle&quot;,&quot;startArrow&quot;:&quot;none&quot;,&quot;endArrow&quot;:&quot;none&quot;,&quot;segment&quot;:10,&quot;curved&quot;:1,&quot;sourcePerimeterSpacing&quot;:0,&quot;targetPerimeterSpacing&quot;:0};fontSize=16;" vertex="1" parent="1">
          <mxGeometry x="181" y="516" width="73" height="62" as="geometry" />
        </mxCell>
        <mxCell id="lmjF-axeNM3irQxMTkxf-5" value="" style="edgeStyle=entityRelationEdgeStyle;startArrow=none;endArrow=none;segment=10;curved=1;sourcePerimeterSpacing=0;targetPerimeterSpacing=0;rounded=0;fontSize=12;startSize=8;endSize=8;" edge="1" target="lmjF-axeNM3irQxMTkxf-4" parent="1">
          <mxGeometry relative="1" as="geometry">
            <mxPoint x="149" y="616" as="sourcePoint" />
          </mxGeometry>
        </mxCell>
        <mxCell id="lmjF-axeNM3irQxMTkxf-6" value="日志内容" style="whiteSpace=wrap;html=1;shape=partialRectangle;top=0;left=0;bottom=1;right=0;points=[[0,1],[1,1]];fillColor=none;align=center;verticalAlign=bottom;routingCenterY=0.5;snapToPoint=1;recursiveResize=0;autosize=1;treeFolding=1;treeMoving=1;newEdgeStyle={&quot;edgeStyle&quot;:&quot;entityRelationEdgeStyle&quot;,&quot;startArrow&quot;:&quot;none&quot;,&quot;endArrow&quot;:&quot;none&quot;,&quot;segment&quot;:10,&quot;curved&quot;:1,&quot;sourcePerimeterSpacing&quot;:0,&quot;targetPerimeterSpacing&quot;:0};fontSize=16;" vertex="1" parent="1">
          <mxGeometry x="167.5" y="698" width="78" height="31" as="geometry" />
        </mxCell>
        <mxCell id="lmjF-axeNM3irQxMTkxf-7" value="" style="edgeStyle=entityRelationEdgeStyle;startArrow=none;endArrow=none;segment=10;curved=1;sourcePerimeterSpacing=0;targetPerimeterSpacing=0;rounded=0;fontSize=12;startSize=8;endSize=8;" edge="1" parent="1" target="lmjF-axeNM3irQxMTkxf-6">
          <mxGeometry relative="1" as="geometry">
            <mxPoint x="144.5" y="764" as="sourcePoint" />
          </mxGeometry>
        </mxCell>
      </root>
    </mxGraphModel>
  </diagram>
</mxfile>
